Motion_pl03
version=1
nRows=5
nColumns=43
inDegrees=yes
endheader
time	pelvis_tilt	pelvis_list	pelvis_rotation	pelvis_tx	pelvis_ty	pelvis_tz	hip_flexion_r	hip_adduction_r	hip_rotation_r	knee_angle_r	ankle_angle_r	subtalar_angle_r	mtp_angle_r	hip_flexion_l	hip_adduction_l	hip_rotation_l	knee_angle_l	ankle_angle_l	subtalar_angle_l	mtp_angle_l	lumbar_extension	lumbar_bending	lumbar_rotation	neck_flexion	neck_lateral_bending	neck_rotation	arm_flex_r	arm_add_r	arm_rot_r	elbow_flex_r	pro_sup_r	wrist_flex_r	wrist_dev_r	hand_finger_flex_r	arm_flex_l	arm_add_l	arm_rot_l	elbow_flex_l	pro_sup_l	wrist_flex_l	wrist_dev_l	hand_finger_flex_l
      1.29000000	      0.26273363	     15.45327076	     91.82672452	      0.01358014	      0.43944507	      0.50464550	     77.28873044	     -7.51812818	     -0.04315723	   -137.24216109	     22.92008090	     -0.09583787	     25.44685536	     75.82316887	     -3.56496701	     -1.73525229	   -136.34685666	     25.05120184	    -13.65638938	     24.69390688	    -73.20283672	      0.12678746	     -0.01717417	     13.46861062	      2.95386248	     -6.02190662	     94.91380463	    -26.39230604	     36.51600028	     55.00469946	     98.41138160	    -27.32983617	      1.97029623	     52.86214148	     92.40496420	    -28.61029117	     37.96356634	     67.89194618	    125.90435226	    -26.37680086	      5.74865143	     90.00021046
      1.29250000	      0.22567659	     15.15591991	     91.92506855	      0.01319296	      0.43744311	      0.50413692	     77.68444198	     -7.77873438	      0.15606561	   -137.49592421	     23.51275539	      0.79781840	     25.46475567	     76.34105649	     -3.50457450	     -1.57111711	   -136.64001020	     25.25973647	    -12.80021317	     24.88896709	    -72.94733386	      0.21794760	     -0.04447887	     13.37028551	      2.98053837	     -6.13488887	     96.28671460	    -26.14010188	     37.26431315	     54.89721393	     98.73330571	    -27.09659339	      1.79369289	     52.23244902	     93.95371291	    -28.48783752	     39.25686865	     67.79373563	    126.18496042	    -26.45420867	      5.58912677	     90.00021046
      1.29500000	      0.17492425	     14.89614029	     91.98971291	      0.01275578	      0.43596114	      0.50374586	     77.99707077	     -8.03343433	      0.39195403	   -137.65805988	     23.99035526	      1.69790590	     25.45741653	     76.73806618	     -3.47847637	     -1.45140533	   -136.83130557	     25.51722835	    -11.96154312	     25.14051840	    -72.78079138	      0.28306146	     -0.06470437	     13.45387550	      2.97254516	     -6.15374680	     97.54909077	    -25.75611807	     37.62006674	     54.73843171	     98.87830740	    -26.93690168	      1.59091408	     51.38953541	     95.29979321	    -28.17431607	     40.00476939	     67.66502174	    126.24197866	    -26.64317051	      5.55430000	     90.00021046
      1.29750000	      0.14263496	     14.65793341	     92.03349140	      0.01235650	      0.43453138	      0.50337255	     78.30764742	     -8.23622842	      0.58993036	   -137.82599157	     24.35732116	      2.34757152	     25.46304092	     77.11869645	     -3.46615431	     -1.33550452	   -137.01198279	     25.67507726	    -11.33267419	     25.36861640	    -72.61984294	      0.34719433	     -0.06196758	     13.48165552	      2.94250720	     -6.16943366	     98.76682207	    -25.35928367	     37.93414019	     54.59077353	     99.02316076	    -26.75983027	      1.44691467	     50.67762527	     96.55151012	    -27.87112970	     40.64667374	     67.59531310	    126.33433414	    -26.69063351	      5.51504996	     90.00021046
      1.30000000	      0.11795249	     14.41731098	     92.07063826	      0.01200254	      0.43324339	      0.50301003	     78.60927039	     -8.43209635	      0.77062166	   -137.96971605	     24.67809200	      2.99871912	     25.48886115	     77.48715212	     -3.46747349	     -1.19332328	   -137.17016056	     25.82914693	    -10.67708764	     25.62902822	    -72.46606054	      0.40771874	     -0.05689273	     13.52973559	      2.91185561	     -6.17065134	     99.96443770	    -24.95738686	     38.24316351	     54.43711076	     99.18070547	    -26.60748875	      1.28955880	     49.95464493	     97.78951044	    -27.57688211	     41.25422701	     67.53123451	    126.43638079	    -26.64911102	      5.48037484	     90.00021046
